<svg width="84" height="84" viewBox="0 0 84 84" fill="none" xmlns="http://www.w3.org/2000/svg">
<path d="M78.8153 67.5936C78.0233 68.9993 76.8689 70.1669 75.4723 70.9748C74.0757 71.7828 72.488 72.2015 70.8746 72.1873H51.5153L52.6637 73.3358C53.0308 73.7016 53.322 74.1362 53.5208 74.6149C53.7195 75.0935 53.8218 75.6066 53.8218 76.1248C53.8218 76.6431 53.7195 77.1562 53.5208 77.6348C53.322 78.1134 53.0308 78.5481 52.6637 78.9139C51.9207 79.6473 50.9187 80.0585 49.8746 80.0585C48.8306 80.0585 47.8286 79.6473 47.0856 78.9139L39.2106 71.0389C38.4772 70.2959 38.066 69.2938 38.066 68.2498C38.066 67.2058 38.4772 66.2038 39.2106 65.4608L47.0856 57.5858C47.8253 56.8461 48.8285 56.4305 49.8746 56.4305C50.9207 56.4305 51.924 56.8461 52.6637 57.5858C53.4034 58.3255 53.819 59.3287 53.819 60.3748C53.819 61.4209 53.4034 62.4242 52.6637 63.1639L51.5153 64.3123H70.8746C71.1029 64.3155 71.3276 64.256 71.5243 64.1403C71.721 64.0246 71.8822 63.8571 71.9903 63.6561C72.1123 63.4589 72.1769 63.2317 72.1769 62.9998C72.1769 62.768 72.1123 62.5407 71.9903 62.3436L65.4606 51.0233C65.202 50.5751 65.0343 50.0805 64.9669 49.5675C64.8996 49.0545 64.9339 48.5333 65.068 48.0336C65.202 47.5339 65.4332 47.0655 65.7483 46.6552C66.0634 46.2448 66.4562 45.9006 66.9043 45.642C67.3525 45.3835 67.8471 45.2157 68.3601 45.1484C68.8731 45.081 69.3943 45.1153 69.894 45.2494C70.3937 45.3835 70.8621 45.6146 71.2724 45.9297C71.6828 46.2448 72.027 46.6376 72.2856 47.0858L78.8153 58.4061C79.6381 59.7971 80.0721 61.3837 80.0721 62.9998C80.0721 64.616 79.6381 66.2025 78.8153 67.5936ZM41.9996 11.8123C42.232 11.8102 42.4608 11.8699 42.6626 11.9852C42.8644 12.1005 43.0319 12.2673 43.1481 12.4686L52.795 29.1701L51.2528 28.7436C50.7529 28.61 50.2317 28.5762 49.7188 28.644C49.2058 28.7119 48.7113 28.8802 48.2634 29.1391C47.8155 29.3981 47.423 29.7428 47.1083 30.1535C46.7936 30.5642 46.5629 31.0328 46.4293 31.5326C46.2958 32.0325 46.2619 32.5537 46.3298 33.0667C46.3977 33.5796 46.5659 34.0741 46.8249 34.522C47.0839 34.9699 47.4286 35.3624 47.8392 35.6771C48.2499 35.9918 48.7186 36.2225 49.2184 36.3561L59.9481 39.2436C60.2796 39.3334 60.6218 39.3776 60.9653 39.3748C61.8314 39.3699 62.6722 39.0818 63.3594 38.5546C64.0465 38.0273 64.5425 37.2898 64.7715 36.4545L67.659 25.692C67.9288 24.6825 67.7865 23.6072 67.2635 22.7027C66.7404 21.7981 65.8794 21.1383 64.87 20.8686C63.8605 20.5988 62.7852 20.7411 61.8806 21.2641C60.976 21.7872 60.3163 22.6482 60.0465 23.6576L59.62 25.2326L49.9403 8.53108C49.1385 7.13354 47.982 5.97237 46.5878 5.16486C45.1935 4.35736 43.6109 3.93213 41.9996 3.93213C40.3884 3.93213 38.8058 4.35736 37.4115 5.16486C36.0173 5.97237 34.8608 7.13354 34.059 8.53108L27.4965 19.8186C26.97 20.7236 26.8246 21.8008 27.0923 22.813C27.36 23.8253 28.0188 24.6897 28.9239 25.2162C29.8289 25.7427 30.9061 25.8881 31.9183 25.6205C32.9306 25.3528 33.795 24.6939 34.3215 23.7889L40.8512 12.4686C40.9674 12.2673 41.1349 12.1005 41.3367 11.9852C41.5385 11.8699 41.7673 11.8102 41.9996 11.8123ZM26.2496 64.3123H13.1247C12.8964 64.3155 12.6717 64.256 12.475 64.1403C12.2783 64.0246 12.1171 63.8571 12.009 63.6561C11.887 63.4589 11.8224 63.2317 11.8224 62.9998C11.8224 62.768 11.887 62.5407 12.009 62.3436L21.6887 45.6092L22.1153 47.217C22.3379 48.0497 22.8276 48.7863 23.5093 49.3138C24.1909 49.8414 25.0268 50.1307 25.8887 50.1373C26.242 50.126 26.5935 50.0821 26.9387 50.0061C27.4381 49.8731 27.9061 49.6424 28.3156 49.3272C28.7251 49.0121 29.068 48.6188 29.3244 48.1701C29.5807 47.7214 29.7455 47.2263 29.8091 46.7135C29.8728 46.2007 29.8339 45.6803 29.695 45.1826L26.8403 34.4201C26.5546 33.4171 25.8975 32.5606 25.0028 32.0248C24.0978 31.5065 23.0252 31.3651 22.0168 31.6311L11.2543 34.5186C10.2449 34.7883 9.38389 35.4481 8.86084 36.3527C8.33779 37.2572 8.1955 38.3325 8.46527 39.342C8.73505 40.3515 9.39479 41.2125 10.2994 41.7355C11.2039 42.2586 12.2792 42.4008 13.2887 42.1311L14.8309 41.7045L5.18402 58.4061C4.37833 59.8016 3.95383 61.3844 3.95313 62.9958C3.95242 64.6072 4.37554 66.1905 5.18002 67.5867C5.9845 68.9829 7.14205 70.1429 8.5365 70.9504C9.93095 71.758 11.5133 72.1845 13.1247 72.1873H26.2496C27.2939 72.1873 28.2955 71.7725 29.0339 71.0341C29.7723 70.2956 30.1871 69.2941 30.1871 68.2498C30.1871 67.2055 29.7723 66.204 29.0339 65.4656C28.2955 64.7272 27.2939 64.3123 26.2496 64.3123Z" fill="#202020"/>
</svg>
