<svg width="95" height="95" viewBox="0 0 95 95" fill="none" xmlns="http://www.w3.org/2000/svg">
<path d="M42.5518 31.6665C40.9288 31.6665 39.583 33.0123 39.583 34.6353V53.1998C39.583 54.5853 40.2955 55.8519 41.4434 56.5644L55.8518 65.4311C56.4921 65.8195 57.2606 65.9376 57.9881 65.7595C58.7156 65.5813 59.3425 65.1215 59.7309 64.4811C60.1194 63.8407 60.2375 63.0722 60.0593 62.3448C59.8812 61.6173 59.4213 60.9904 58.7809 60.6019L45.5205 52.6457V34.6353C45.5205 33.0123 44.1747 31.6665 42.5518 31.6665Z" fill="#202020"/>
<path d="M70.9337 47.5002C71.5303 51.4345 71.2672 55.4514 70.1625 59.2743C69.0577 63.0972 67.1376 66.6353 64.5343 69.6449C61.931 72.6545 58.7063 75.0642 55.0824 76.708C51.4584 78.3518 47.5213 79.1907 43.542 79.1668C28.1045 79.1668 15.8337 66.896 15.8337 51.4585C15.8337 36.021 28.1045 23.7502 43.542 23.7502C46.3128 23.7502 48.9649 24.146 51.4587 24.8981V16.7439C48.9253 16.1502 46.2732 15.8335 43.542 15.8335C23.7503 15.8335 7.91699 31.6668 7.91699 51.4585C7.91699 71.2502 23.7503 87.0835 43.542 87.0835C48.5599 87.1043 53.5252 86.0605 58.1099 84.0209C62.6946 81.9813 66.7946 78.9923 70.139 75.2513C73.4834 71.5104 75.9962 67.1025 77.5115 62.3188C79.0268 57.5351 79.5101 52.4844 78.9295 47.5002H70.9337Z" fill="#202020"/>
<path d="M87.0833 19.7915H79.1667V11.8748C79.1667 9.69775 77.3854 7.9165 75.2083 7.9165C73.0313 7.9165 71.25 9.69775 71.25 11.8748V19.7915H63.3333C61.1562 19.7915 59.375 21.5728 59.375 23.7498C59.375 25.9269 61.1562 27.7082 63.3333 27.7082H71.25V35.6248C71.25 37.8019 73.0313 39.5832 75.2083 39.5832C77.3854 39.5832 79.1667 37.8019 79.1667 35.6248V27.7082H87.0833C89.2604 27.7082 91.0417 25.9269 91.0417 23.7498C91.0417 21.5728 89.2604 19.7915 87.0833 19.7915Z" fill="#202020"/>
</svg>
